<mxfile host="drawio-plugin" modified="2024-02-25T19:23:14.951Z" agent="5.0 (Windows NT 10.0; Win64; x64) AppleWebKit/537.36 (KHTML, like Gecko) Chrome/111.0.0.0 Safari/537.36" etag="cdFuBZ_H_FcU5C_wJmyB" version="20.5.3" type="embed" pages="2"><diagram name="Info" id="hEjKEweEEMgVAlzNVKjG"><mxGraphModel dx="707" dy="410" grid="1" gridSize="10" guides="1" tooltips="1" connect="1" arrows="1" fold="1" page="1" pageScale="1" pageWidth="827" pageHeight="1169" math="0" shadow="0"><root><mxCell id="0"/><mxCell id="1" parent="0"/><mxCell id="G2SO4JVji4VyPr2DQfYR-37" value="&lt;font color=&quot;#ff0080&quot; style=&quot;font-size: 48px;&quot;&gt;Services&lt;/font&gt;" style="text;html=1;strokeColor=none;fillColor=none;align=center;verticalAlign=middle;whiteSpace=wrap;rounded=0;" parent="1" vertex="1"><mxGeometry x="316" y="545" width="196" height="80" as="geometry"/></mxCell><mxCell id="G2SO4JVji4VyPr2DQfYR-31" value="&lt;font style=&quot;font-size: 24px;&quot;&gt;Applications info&lt;/font&gt;" style="swimlane;whiteSpace=wrap;html=1;startSize=60;" parent="1" vertex="1"><mxGeometry x="49" y="60" width="730" height="450" as="geometry"/></mxCell><mxCell id="G2SO4JVji4VyPr2DQfYR-4" value="Admin app info" style="swimlane;fontStyle=0;childLayout=stackLayout;horizontal=1;startSize=30;horizontalStack=0;resizeParent=1;resizeParentMax=0;resizeLast=0;collapsible=1;marginBottom=0;whiteSpace=wrap;html=1;" parent="G2SO4JVji4VyPr2DQfYR-31" vertex="1"><mxGeometry x="40" y="220" width="190" height="90" as="geometry"><mxRectangle x="40" y="180" width="110" height="30" as="alternateBounds"/></mxGeometry></mxCell><mxCell id="G2SO4JVji4VyPr2DQfYR-5" value="Update, delete, insert new products" style="text;strokeColor=none;fillColor=none;align=left;verticalAlign=middle;spacingLeft=4;spacingRight=4;overflow=hidden;points=[[0,0.5],[1,0.5]];portConstraint=eastwest;rotatable=0;whiteSpace=wrap;html=1;" parent="G2SO4JVji4VyPr2DQfYR-4" vertex="1"><mxGeometry y="30" width="190" height="60" as="geometry"/></mxCell><mxCell id="G2SO4JVji4VyPr2DQfYR-17" style="edgeStyle=orthogonalEdgeStyle;rounded=0;orthogonalLoop=1;jettySize=auto;html=1;exitX=0.496;exitY=1.003;exitDx=0;exitDy=0;exitPerimeter=0;" parent="G2SO4JVji4VyPr2DQfYR-31" edge="1"><mxGeometry relative="1" as="geometry"><mxPoint x="136.12" y="170.00000000000003" as="sourcePoint"/><mxPoint x="135.88540540540544" y="219.79" as="targetPoint"/><Array as="points"><mxPoint x="136" y="200"/><mxPoint x="136" y="200"/></Array></mxGeometry></mxCell><mxCell id="G2SO4JVji4VyPr2DQfYR-10" value="&lt;font style=&quot;font-size: 18px;&quot; color=&quot;#990000&quot;&gt;Admin application&lt;/font&gt;" style="rounded=0;whiteSpace=wrap;html=1;" parent="G2SO4JVji4VyPr2DQfYR-31" vertex="1"><mxGeometry x="41" y="100" width="190" height="70" as="geometry"/></mxCell><mxCell id="G2SO4JVji4VyPr2DQfYR-12" value="User app info" style="swimlane;fontStyle=0;childLayout=stackLayout;horizontal=1;startSize=30;horizontalStack=0;resizeParent=1;resizeParentMax=0;resizeLast=0;collapsible=1;marginBottom=0;whiteSpace=wrap;html=1;" parent="G2SO4JVji4VyPr2DQfYR-31" vertex="1"><mxGeometry x="270" y="220" width="190" height="140" as="geometry"><mxRectangle x="40" y="180" width="110" height="30" as="alternateBounds"/></mxGeometry></mxCell><mxCell id="G2SO4JVji4VyPr2DQfYR-13" value="The user can pick up available products from the list" style="text;strokeColor=none;fillColor=none;align=left;verticalAlign=middle;spacingLeft=4;spacingRight=4;overflow=hidden;points=[[0,0.5],[1,0.5]];portConstraint=eastwest;rotatable=0;whiteSpace=wrap;html=1;" parent="G2SO4JVji4VyPr2DQfYR-12" vertex="1"><mxGeometry y="30" width="190" height="60" as="geometry"/></mxCell><mxCell id="G2SO4JVji4VyPr2DQfYR-14" value="The user can order products for his address" style="text;strokeColor=none;fillColor=none;align=left;verticalAlign=middle;spacingLeft=4;spacingRight=4;overflow=hidden;points=[[0,0.5],[1,0.5]];portConstraint=eastwest;rotatable=0;whiteSpace=wrap;html=1;" parent="G2SO4JVji4VyPr2DQfYR-12" vertex="1"><mxGeometry y="90" width="190" height="50" as="geometry"/></mxCell><mxCell id="G2SO4JVji4VyPr2DQfYR-20" style="edgeStyle=orthogonalEdgeStyle;rounded=0;orthogonalLoop=1;jettySize=auto;html=1;exitX=-0.001;exitY=0.142;exitDx=0;exitDy=0;exitPerimeter=0;" parent="G2SO4JVji4VyPr2DQfYR-31" edge="1"><mxGeometry relative="1" as="geometry"><mxPoint x="269.99999999999994" y="280.81000000000006" as="sourcePoint"/><mxPoint x="230.19" y="280.00000000000006" as="targetPoint"/></mxGeometry></mxCell><mxCell id="G2SO4JVji4VyPr2DQfYR-11" value="&lt;font style=&quot;font-size: 18px;&quot; color=&quot;#66cc00&quot;&gt;User application&lt;/font&gt;" style="rounded=0;whiteSpace=wrap;html=1;" parent="G2SO4JVji4VyPr2DQfYR-31" vertex="1"><mxGeometry x="270" y="100" width="190" height="70" as="geometry"/></mxCell><mxCell id="G2SO4JVji4VyPr2DQfYR-18" style="edgeStyle=orthogonalEdgeStyle;rounded=0;orthogonalLoop=1;jettySize=auto;html=1;" parent="G2SO4JVji4VyPr2DQfYR-31" source="G2SO4JVji4VyPr2DQfYR-11" target="G2SO4JVji4VyPr2DQfYR-12" edge="1"><mxGeometry relative="1" as="geometry"/></mxCell><mxCell id="G2SO4JVji4VyPr2DQfYR-21" value="&lt;font style=&quot;font-size: 18px;&quot; color=&quot;#cccc00&quot;&gt;Employee application&lt;/font&gt;" style="rounded=0;whiteSpace=wrap;html=1;" parent="G2SO4JVji4VyPr2DQfYR-31" vertex="1"><mxGeometry x="501" y="100" width="191" height="70" as="geometry"/></mxCell><mxCell id="G2SO4JVji4VyPr2DQfYR-25" value="Employee app info" style="swimlane;fontStyle=0;childLayout=stackLayout;horizontal=1;startSize=30;horizontalStack=0;resizeParent=1;resizeParentMax=0;resizeLast=0;collapsible=1;marginBottom=0;whiteSpace=wrap;html=1;" parent="G2SO4JVji4VyPr2DQfYR-31" vertex="1"><mxGeometry x="501" y="220" width="189" height="190" as="geometry"><mxRectangle x="40" y="180" width="110" height="30" as="alternateBounds"/></mxGeometry></mxCell><mxCell id="G2SO4JVji4VyPr2DQfYR-26" value="When a user orders a product, the staff application records it and displays it accordingly" style="text;strokeColor=none;fillColor=none;align=left;verticalAlign=middle;spacingLeft=4;spacingRight=4;overflow=hidden;points=[[0,0.5],[1,0.5]];portConstraint=eastwest;rotatable=0;whiteSpace=wrap;html=1;" parent="G2SO4JVji4VyPr2DQfYR-25" vertex="1"><mxGeometry y="30" width="189" height="60" as="geometry"/></mxCell><mxCell id="G2SO4JVji4VyPr2DQfYR-27" value="Access only to authorized personnel" style="text;strokeColor=none;fillColor=none;align=left;verticalAlign=middle;spacingLeft=4;spacingRight=4;overflow=hidden;points=[[0,0.5],[1,0.5]];portConstraint=eastwest;rotatable=0;whiteSpace=wrap;html=1;" parent="G2SO4JVji4VyPr2DQfYR-25" vertex="1"><mxGeometry y="90" width="189" height="50" as="geometry"/></mxCell><mxCell id="G2SO4JVji4VyPr2DQfYR-28" value="Employee confirms the order" style="text;strokeColor=none;fillColor=none;align=left;verticalAlign=middle;spacingLeft=4;spacingRight=4;overflow=hidden;points=[[0,0.5],[1,0.5]];portConstraint=eastwest;rotatable=0;whiteSpace=wrap;html=1;" parent="G2SO4JVji4VyPr2DQfYR-25" vertex="1"><mxGeometry y="140" width="189" height="50" as="geometry"/></mxCell><mxCell id="ZQc-NLTVXJevARz62GkW-3" style="edgeStyle=orthogonalEdgeStyle;rounded=0;orthogonalLoop=1;jettySize=auto;html=1;" parent="G2SO4JVji4VyPr2DQfYR-31" edge="1"><mxGeometry relative="1" as="geometry"><mxPoint x="596.37" y="170" as="sourcePoint"/><mxPoint x="596.37" y="220" as="targetPoint"/></mxGeometry></mxCell><mxCell id="ZQc-NLTVXJevARz62GkW-6" value="" style="edgeStyle=orthogonalEdgeStyle;rounded=0;orthogonalLoop=1;jettySize=auto;html=1;" parent="G2SO4JVji4VyPr2DQfYR-31" edge="1"><mxGeometry relative="1" as="geometry"><mxPoint x="460" y="270.0032558139536" as="sourcePoint"/><mxPoint x="501" y="310.0032558139536" as="targetPoint"/><Array as="points"><mxPoint x="460" y="310"/></Array></mxGeometry></mxCell><mxCell id="wFu3eIS5IuRUkTCUDjFC-2" value="Backend" style="swimlane;whiteSpace=wrap;html=1;startSize=40;" parent="1" vertex="1"><mxGeometry x="334" y="650" width="158.67" height="380" as="geometry"><mxRectangle x="11.333333333333332" y="30" width="90" height="40" as="alternateBounds"/></mxGeometry></mxCell><mxCell id="wFu3eIS5IuRUkTCUDjFC-3" value="&lt;font color=&quot;#ffffff&quot;&gt;Spring Boot&lt;br&gt;&lt;/font&gt;" style="rounded=0;whiteSpace=wrap;html=1;" parent="wFu3eIS5IuRUkTCUDjFC-2" vertex="1"><mxGeometry x="9.999803925413227" y="60" width="138.6672810337052" height="22.5" as="geometry"/></mxCell><mxCell id="rRqVjKUXsbFs-e0D_KoY-2" value="&lt;font color=&quot;#ffffff&quot;&gt;Spring Core&lt;/font&gt;" style="rounded=0;whiteSpace=wrap;html=1;" parent="wFu3eIS5IuRUkTCUDjFC-2" vertex="1"><mxGeometry x="9.999803925413227" y="100" width="138.6672810337052" height="22.5" as="geometry"/></mxCell><mxCell id="rRqVjKUXsbFs-e0D_KoY-4" value="&lt;font color=&quot;#ffffff&quot;&gt;Spring Data JPA/JDBC&lt;/font&gt;" style="rounded=0;whiteSpace=wrap;html=1;" parent="wFu3eIS5IuRUkTCUDjFC-2" vertex="1"><mxGeometry x="9.999803925413227" y="140" width="138.6672810337052" height="22.5" as="geometry"/></mxCell><mxCell id="rRqVjKUXsbFs-e0D_KoY-8" value="&lt;font color=&quot;#ffffff&quot;&gt;Spring REST&lt;/font&gt;" style="rounded=0;whiteSpace=wrap;html=1;" parent="wFu3eIS5IuRUkTCUDjFC-2" vertex="1"><mxGeometry x="9.999803925413227" y="180" width="138.6672810337052" height="22.5" as="geometry"/></mxCell><mxCell id="rRqVjKUXsbFs-e0D_KoY-3" value="&lt;font color=&quot;#ffffff&quot;&gt;Spring MVC&lt;/font&gt;" style="rounded=0;whiteSpace=wrap;html=1;" parent="wFu3eIS5IuRUkTCUDjFC-2" vertex="1"><mxGeometry x="9.999803925413227" y="220" width="138.6672810337052" height="22.5" as="geometry"/></mxCell><mxCell id="rRqVjKUXsbFs-e0D_KoY-5" value="Lombok" style="rounded=0;whiteSpace=wrap;html=1;" parent="wFu3eIS5IuRUkTCUDjFC-2" vertex="1"><mxGeometry x="9.999803925413227" y="260" width="138.6672810337052" height="22.5" as="geometry"/></mxCell><mxCell id="wFu3eIS5IuRUkTCUDjFC-4" value="MySQL" style="rounded=0;whiteSpace=wrap;html=1;" parent="wFu3eIS5IuRUkTCUDjFC-2" vertex="1"><mxGeometry x="9.999803925413227" y="300" width="138.6672810337052" height="22.5" as="geometry"/></mxCell><mxCell id="rRqVjKUXsbFs-e0D_KoY-7" value="Google Maps API" style="rounded=0;whiteSpace=wrap;html=1;" parent="wFu3eIS5IuRUkTCUDjFC-2" vertex="1"><mxGeometry x="10.003137193388419" y="340" width="138.6672810337052" height="22.5" as="geometry"/></mxCell></root></mxGraphModel></diagram><diagram id="SeI9p01FO2KbX_U5fRMr" name="Tables"><mxGraphModel dx="707" dy="410" grid="1" gridSize="10" guides="1" tooltips="1" connect="1" arrows="1" fold="1" page="1" pageScale="1" pageWidth="827" pageHeight="1169" math="0" shadow="0"><root><mxCell id="0"/><mxCell id="1" parent="0"/><mxCell id="ihlXEn56C6CoI_n9YMRt-1" value="&lt;font color=&quot;#ff0080&quot; style=&quot;font-size: 48px;&quot;&gt;Tables&lt;/font&gt;" style="text;html=1;strokeColor=none;fillColor=none;align=center;verticalAlign=middle;whiteSpace=wrap;rounded=0;" parent="1" vertex="1"><mxGeometry x="251" y="20" width="326" height="130" as="geometry"/></mxCell><mxCell id="iCw4wHPo8YUdNna28A6i-1" value="- restoraunts" style="swimlane;whiteSpace=wrap;html=1;" parent="1" vertex="1"><mxGeometry x="159" y="170" width="130" height="120" as="geometry"/></mxCell><mxCell id="iCw4wHPo8YUdNna28A6i-2" value="- id" style="text;html=1;strokeColor=none;fillColor=none;align=left;verticalAlign=middle;whiteSpace=wrap;rounded=0;" parent="iCw4wHPo8YUdNna28A6i-1" vertex="1"><mxGeometry x="10" y="30" width="110" height="30" as="geometry"/></mxCell><mxCell id="iCw4wHPo8YUdNna28A6i-3" value="- city" style="text;html=1;strokeColor=none;fillColor=none;align=left;verticalAlign=middle;whiteSpace=wrap;rounded=0;" parent="iCw4wHPo8YUdNna28A6i-1" vertex="1"><mxGeometry x="10" y="60" width="110" height="30" as="geometry"/></mxCell><mxCell id="iCw4wHPo8YUdNna28A6i-4" value="- address" style="text;html=1;strokeColor=none;fillColor=none;align=left;verticalAlign=middle;whiteSpace=wrap;rounded=0;" parent="iCw4wHPo8YUdNna28A6i-1" vertex="1"><mxGeometry x="10" y="90" width="110" height="30" as="geometry"/></mxCell><mxCell id="iCw4wHPo8YUdNna28A6i-38" style="edgeStyle=orthogonalEdgeStyle;rounded=0;orthogonalLoop=1;jettySize=auto;html=1;" parent="1" edge="1"><mxGeometry relative="1" as="geometry"><Array as="points"><mxPoint x="449" y="240"/><mxPoint x="479" y="240"/></Array><mxPoint x="449" y="250" as="sourcePoint"/><mxPoint x="480" y="240" as="targetPoint"/></mxGeometry></mxCell><mxCell id="iCw4wHPo8YUdNna28A6i-5" value="- consumers" style="swimlane;whiteSpace=wrap;html=1;" parent="1" vertex="1"><mxGeometry x="319" y="170" width="130" height="360" as="geometry"/></mxCell><mxCell id="iCw4wHPo8YUdNna28A6i-6" value="- id" style="text;html=1;strokeColor=none;fillColor=none;align=left;verticalAlign=middle;whiteSpace=wrap;rounded=0;" parent="iCw4wHPo8YUdNna28A6i-5" vertex="1"><mxGeometry x="10" y="30" width="110" height="30" as="geometry"/></mxCell><mxCell id="iCw4wHPo8YUdNna28A6i-7" value="- name" style="text;html=1;strokeColor=none;fillColor=none;align=left;verticalAlign=middle;whiteSpace=wrap;rounded=0;" parent="iCw4wHPo8YUdNna28A6i-5" vertex="1"><mxGeometry x="10" y="60" width="110" height="30" as="geometry"/></mxCell><mxCell id="iCw4wHPo8YUdNna28A6i-8" value="- surname" style="text;html=1;strokeColor=none;fillColor=none;align=left;verticalAlign=middle;whiteSpace=wrap;rounded=0;" parent="iCw4wHPo8YUdNna28A6i-5" vertex="1"><mxGeometry x="10" y="90" width="110" height="30" as="geometry"/></mxCell><mxCell id="iCw4wHPo8YUdNna28A6i-9" value="- phone_number" style="text;html=1;strokeColor=none;fillColor=none;align=left;verticalAlign=middle;whiteSpace=wrap;rounded=0;" parent="iCw4wHPo8YUdNna28A6i-5" vertex="1"><mxGeometry x="10" y="120" width="110" height="30" as="geometry"/></mxCell><mxCell id="Kaw6AweRdju-P2IFDpP2-1" value="- email" style="text;html=1;strokeColor=none;fillColor=none;align=left;verticalAlign=middle;whiteSpace=wrap;rounded=0;" parent="iCw4wHPo8YUdNna28A6i-5" vertex="1"><mxGeometry x="10" y="150" width="110" height="30" as="geometry"/></mxCell><mxCell id="Kaw6AweRdju-P2IFDpP2-2" value="- city" style="text;html=1;strokeColor=none;fillColor=none;align=left;verticalAlign=middle;whiteSpace=wrap;rounded=0;" parent="iCw4wHPo8YUdNna28A6i-5" vertex="1"><mxGeometry x="10" y="240" width="110" height="30" as="geometry"/></mxCell><mxCell id="Kaw6AweRdju-P2IFDpP2-12" value="- password" style="text;html=1;strokeColor=none;fillColor=none;align=left;verticalAlign=middle;whiteSpace=wrap;rounded=0;" parent="iCw4wHPo8YUdNna28A6i-5" vertex="1"><mxGeometry x="10" y="180" width="110" height="30" as="geometry"/></mxCell><mxCell id="iCw4wHPo8YUdNna28A6i-10" value="- street" style="text;html=1;strokeColor=none;fillColor=none;align=left;verticalAlign=middle;whiteSpace=wrap;rounded=0;" parent="iCw4wHPo8YUdNna28A6i-5" vertex="1"><mxGeometry x="10" y="270" width="110" height="30" as="geometry"/></mxCell><mxCell id="cVrRgkPKkFyGU74e1Ky4-1" value="- street number" style="text;html=1;strokeColor=none;fillColor=none;align=left;verticalAlign=middle;whiteSpace=wrap;rounded=0;" parent="iCw4wHPo8YUdNna28A6i-5" vertex="1"><mxGeometry x="10" y="300" width="110" height="30" as="geometry"/></mxCell><mxCell id="cVrRgkPKkFyGU74e1Ky4-2" value="- flat number" style="text;html=1;strokeColor=none;fillColor=none;align=left;verticalAlign=middle;whiteSpace=wrap;rounded=0;" parent="iCw4wHPo8YUdNna28A6i-5" vertex="1"><mxGeometry x="10" y="330" width="110" height="30" as="geometry"/></mxCell><mxCell id="rcXD9xm89Njl72WDvGYc-1" value="-&amp;nbsp;confirm_password" style="text;html=1;strokeColor=none;fillColor=none;align=left;verticalAlign=middle;whiteSpace=wrap;rounded=0;" parent="iCw4wHPo8YUdNna28A6i-5" vertex="1"><mxGeometry x="10" y="210" width="110" height="30" as="geometry"/></mxCell><mxCell id="iCw4wHPo8YUdNna28A6i-45" style="edgeStyle=orthogonalEdgeStyle;rounded=0;orthogonalLoop=1;jettySize=auto;html=1;entryX=1;entryY=0.5;entryDx=0;entryDy=0;" parent="1" target="iCw4wHPo8YUdNna28A6i-31" edge="1"><mxGeometry relative="1" as="geometry"><Array as="points"><mxPoint x="669" y="640"/><mxPoint x="669" y="230"/></Array><mxPoint x="289" y="640" as="sourcePoint"/><mxPoint x="609" y="250" as="targetPoint"/></mxGeometry></mxCell><mxCell id="iCw4wHPo8YUdNna28A6i-16" value="- menu_items" style="swimlane;whiteSpace=wrap;html=1;" parent="1" vertex="1"><mxGeometry x="159" y="530" width="130" height="240" as="geometry"/></mxCell><mxCell id="iCw4wHPo8YUdNna28A6i-17" value="- id" style="text;html=1;strokeColor=none;fillColor=none;align=left;verticalAlign=middle;whiteSpace=wrap;rounded=0;" parent="iCw4wHPo8YUdNna28A6i-16" vertex="1"><mxGeometry x="10" y="30" width="110" height="30" as="geometry"/></mxCell><mxCell id="iCw4wHPo8YUdNna28A6i-19" value="- name" style="text;html=1;strokeColor=none;fillColor=none;align=left;verticalAlign=middle;whiteSpace=wrap;rounded=0;" parent="iCw4wHPo8YUdNna28A6i-16" vertex="1"><mxGeometry x="10" y="115" width="110" height="30" as="geometry"/></mxCell><mxCell id="iCw4wHPo8YUdNna28A6i-20" value="- price" style="text;html=1;strokeColor=none;fillColor=none;align=left;verticalAlign=middle;whiteSpace=wrap;rounded=0;" parent="iCw4wHPo8YUdNna28A6i-16" vertex="1"><mxGeometry x="10" y="145" width="110" height="30" as="geometry"/></mxCell><mxCell id="iCw4wHPo8YUdNna28A6i-21" value="- image" style="text;html=1;strokeColor=none;fillColor=none;align=left;verticalAlign=middle;whiteSpace=wrap;rounded=0;" parent="iCw4wHPo8YUdNna28A6i-16" vertex="1"><mxGeometry x="10" y="180" width="110" height="30" as="geometry"/></mxCell><mxCell id="iCw4wHPo8YUdNna28A6i-22" value="- description" style="text;html=1;strokeColor=none;fillColor=none;align=left;verticalAlign=middle;whiteSpace=wrap;rounded=0;" parent="iCw4wHPo8YUdNna28A6i-16" vertex="1"><mxGeometry x="10" y="210" width="110" height="30" as="geometry"/></mxCell><mxCell id="Q8-x7X7gcaOrJ8IFro7e-1" value="- category_id" style="text;html=1;strokeColor=none;fillColor=none;align=left;verticalAlign=middle;whiteSpace=wrap;rounded=0;" parent="iCw4wHPo8YUdNna28A6i-16" vertex="1"><mxGeometry x="10" y="85" width="110" height="30" as="geometry"/></mxCell><mxCell id="GiyIU9uv5oF_byVK5gzH-1" value="- restaurant_id" style="text;html=1;strokeColor=none;fillColor=none;align=left;verticalAlign=middle;whiteSpace=wrap;rounded=0;" parent="iCw4wHPo8YUdNna28A6i-16" vertex="1"><mxGeometry x="10" y="55" width="110" height="30" as="geometry"/></mxCell><mxCell id="iCw4wHPo8YUdNna28A6i-23" value="- orders" style="swimlane;whiteSpace=wrap;html=1;" parent="1" vertex="1"><mxGeometry x="479" y="320" width="130" height="210" as="geometry"/></mxCell><mxCell id="iCw4wHPo8YUdNna28A6i-24" value="- id" style="text;html=1;strokeColor=none;fillColor=none;align=left;verticalAlign=middle;whiteSpace=wrap;rounded=0;" parent="iCw4wHPo8YUdNna28A6i-23" vertex="1"><mxGeometry x="10" y="30" width="110" height="30" as="geometry"/></mxCell><mxCell id="iCw4wHPo8YUdNna28A6i-25" value="- restoraunt_id" style="text;html=1;strokeColor=none;fillColor=none;align=left;verticalAlign=middle;whiteSpace=wrap;rounded=0;" parent="iCw4wHPo8YUdNna28A6i-23" vertex="1"><mxGeometry x="10" y="60" width="110" height="30" as="geometry"/></mxCell><mxCell id="iCw4wHPo8YUdNna28A6i-26" value="- consumer_id" style="text;html=1;strokeColor=none;fillColor=none;align=left;verticalAlign=middle;whiteSpace=wrap;rounded=0;" parent="iCw4wHPo8YUdNna28A6i-23" vertex="1"><mxGeometry x="10" y="90" width="110" height="30" as="geometry"/></mxCell><mxCell id="iCw4wHPo8YUdNna28A6i-27" value="- status" style="text;html=1;strokeColor=none;fillColor=none;align=left;verticalAlign=middle;whiteSpace=wrap;rounded=0;" parent="iCw4wHPo8YUdNna28A6i-23" vertex="1"><mxGeometry x="10" y="150" width="110" height="30" as="geometry"/></mxCell><mxCell id="iCw4wHPo8YUdNna28A6i-29" value="- description" style="text;html=1;strokeColor=none;fillColor=none;align=left;verticalAlign=middle;whiteSpace=wrap;rounded=0;" parent="iCw4wHPo8YUdNna28A6i-23" vertex="1"><mxGeometry x="10" y="180" width="110" height="30" as="geometry"/></mxCell><mxCell id="4BSaUTFNOsPP6t3ZftQu-2" value="- menu_item_id" style="text;html=1;strokeColor=none;fillColor=none;align=left;verticalAlign=middle;whiteSpace=wrap;rounded=0;" parent="iCw4wHPo8YUdNna28A6i-23" vertex="1"><mxGeometry x="10" y="120" width="110" height="30" as="geometry"/></mxCell><mxCell id="iCw4wHPo8YUdNna28A6i-31" value="- carts" style="swimlane;whiteSpace=wrap;html=1;" parent="1" vertex="1"><mxGeometry x="479" y="170" width="130" height="120" as="geometry"/></mxCell><mxCell id="iCw4wHPo8YUdNna28A6i-32" value="- id" style="text;html=1;strokeColor=none;fillColor=none;align=left;verticalAlign=middle;whiteSpace=wrap;rounded=0;" parent="iCw4wHPo8YUdNna28A6i-31" vertex="1"><mxGeometry x="10" y="30" width="110" height="30" as="geometry"/></mxCell><mxCell id="iCw4wHPo8YUdNna28A6i-33" value="- consumer_id" style="text;html=1;strokeColor=none;fillColor=none;align=left;verticalAlign=middle;whiteSpace=wrap;rounded=0;" parent="iCw4wHPo8YUdNna28A6i-31" vertex="1"><mxGeometry x="10" y="60" width="110" height="30" as="geometry"/></mxCell><mxCell id="iCw4wHPo8YUdNna28A6i-34" value="- menu_item_id" style="text;html=1;strokeColor=none;fillColor=none;align=left;verticalAlign=middle;whiteSpace=wrap;rounded=0;" parent="iCw4wHPo8YUdNna28A6i-31" vertex="1"><mxGeometry x="10" y="90" width="110" height="30" as="geometry"/></mxCell><mxCell id="1gLVSzPonPNC4xxEayPo-1" value="- categories" style="swimlane;whiteSpace=wrap;html=1;" parent="1" vertex="1"><mxGeometry x="159" y="350" width="130" height="120" as="geometry"/></mxCell><mxCell id="1gLVSzPonPNC4xxEayPo-2" value="- id" style="text;html=1;strokeColor=none;fillColor=none;align=left;verticalAlign=middle;whiteSpace=wrap;rounded=0;" parent="1gLVSzPonPNC4xxEayPo-1" vertex="1"><mxGeometry x="10" y="30" width="110" height="30" as="geometry"/></mxCell><mxCell id="1gLVSzPonPNC4xxEayPo-3" value="- restaurant_id" style="text;html=1;strokeColor=none;fillColor=none;align=left;verticalAlign=middle;whiteSpace=wrap;rounded=0;" parent="1gLVSzPonPNC4xxEayPo-1" vertex="1"><mxGeometry x="10" y="60" width="110" height="30" as="geometry"/></mxCell><mxCell id="1gLVSzPonPNC4xxEayPo-4" value="- name" style="text;html=1;strokeColor=none;fillColor=none;align=left;verticalAlign=middle;whiteSpace=wrap;rounded=0;" parent="1gLVSzPonPNC4xxEayPo-1" vertex="1"><mxGeometry x="10" y="90" width="110" height="30" as="geometry"/></mxCell><mxCell id="1gLVSzPonPNC4xxEayPo-13" value="" style="edgeStyle=orthogonalEdgeStyle;rounded=0;orthogonalLoop=1;jettySize=auto;html=1;exitX=0.5;exitY=1;exitDx=0;exitDy=0;" parent="1" source="iCw4wHPo8YUdNna28A6i-4" edge="1"><mxGeometry relative="1" as="geometry"><mxPoint x="223.66" y="300" as="sourcePoint"/><mxPoint x="223.66" y="350" as="targetPoint"/></mxGeometry></mxCell><mxCell id="1gLVSzPonPNC4xxEayPo-14" value="" style="edgeStyle=orthogonalEdgeStyle;rounded=0;orthogonalLoop=1;jettySize=auto;html=1;exitX=0.5;exitY=1;exitDx=0;exitDy=0;" parent="1" source="1gLVSzPonPNC4xxEayPo-4" edge="1"><mxGeometry relative="1" as="geometry"><mxPoint x="223.66" y="480" as="sourcePoint"/><mxPoint x="223.66" y="530" as="targetPoint"/></mxGeometry></mxCell><mxCell id="Kaw6AweRdju-P2IFDpP2-14" style="edgeStyle=orthogonalEdgeStyle;rounded=0;orthogonalLoop=1;jettySize=auto;html=1;entryX=0.5;entryY=1;entryDx=0;entryDy=0;" parent="1" target="iCw4wHPo8YUdNna28A6i-29" edge="1"><mxGeometry relative="1" as="geometry"><mxPoint x="379" y="530" as="sourcePoint"/><mxPoint x="540" y="540" as="targetPoint"/><Array as="points"><mxPoint x="390" y="530"/><mxPoint x="390" y="570"/><mxPoint x="544" y="570"/></Array></mxGeometry></mxCell></root></mxGraphModel></diagram></mxfile>